<svg xmlns="http://www.w3.org/2000/svg" width="1005" height="600"><rect width="1005" height="600" x="0" y="0" fill="#FFFFFF" id="backgorund"/><g id="viz"><clipPath id="serieClipPath"><rect x="-50" y="-20" width="805" height="600"/></clipPath><g transform="translate(0,0)"><g transform="translate(50,20)" clip-path="url(#serieClipPath)"><g id="axis"><g transform="translate(0,560)" fill="none" font-size="10" font-family="sans-serif" text-anchor="middle"><path class="domain" stroke="currentColor" d="M0.5,6V0.5H735.5V6"/><g class="tick" opacity="1" transform="translate(0.5,0)"><line stroke="currentColor" y2="6"/><text fill="currentColor" y="9" dy="0.71em">Jan 03</text></g><g class="tick" opacity="1" transform="translate(57.03846153846154,0)"><line stroke="currentColor" y2="6"/><text fill="currentColor" y="9" dy="0.71em">Jan 10</text></g><g class="tick" opacity="1" transform="translate(113.57692307692308,0)"><line stroke="currentColor" y2="6"/><text fill="currentColor" y="9" dy="0.71em">Jan 17</text></g><g class="tick" opacity="1" transform="translate(170.1153846153846,0)"><line stroke="currentColor" y2="6"/><text fill="currentColor" y="9" dy="0.71em">Jan 24</text></g><g class="tick" opacity="1" transform="translate(226.65384615384616,0)"><line stroke="currentColor" y2="6"/><text fill="currentColor" y="9" dy="0.71em">Jan 31</text></g><g class="tick" opacity="1" transform="translate(283.19230769230774,0)"><line stroke="currentColor" y2="6"/><text fill="currentColor" y="9" dy="0.71em">Feb 07</text></g><g class="tick" opacity="1" transform="translate(339.7307692307692,0)"><line stroke="currentColor" y2="6"/><text fill="currentColor" y="9" dy="0.71em">Feb 14</text></g><g class="tick" opacity="1" transform="translate(396.2692307692308,0)"><line stroke="currentColor" y2="6"/><text fill="currentColor" y="9" dy="0.71em">Feb 21</text></g><g class="tick" opacity="1" transform="translate(452.8076923076923,0)"><line stroke="currentColor" y2="6"/><text fill="currentColor" y="9" dy="0.71em">Feb 28</text></g><g class="tick" opacity="1" transform="translate(509.3461538461538,0)"><line stroke="currentColor" y2="6"/><text fill="currentColor" y="9" dy="0.71em">Mar 06</text></g><g class="tick" opacity="1" transform="translate(565.8846153846155,0)"><line stroke="currentColor" y2="6"/><text fill="currentColor" y="9" dy="0.71em">Mar 13</text></g><g class="tick" opacity="1" transform="translate(622.4230769230769,0)"><line stroke="currentColor" y2="6"/><text fill="currentColor" y="9" dy="0.71em">Mar 20</text></g><g class="tick" opacity="1" transform="translate(678.9615384615385,0)"><line stroke="currentColor" y2="6"/><text fill="currentColor" y="9" dy="0.71em">Mar 27</text></g><g class="tick" opacity="1" transform="translate(735.5,0)"><line stroke="currentColor" y2="6"/><text fill="currentColor" y="9" dy="0.71em">Apr 03</text></g><text x="735" dy="-5" text-anchor="end" style="font-family: Arial, sans-serif; font-size: 12px; fill: rgb(123, 123, 123); font-weight: bold;">日期</text></g><g transform="translate(0,0)" fill="none" font-size="10" font-family="sans-serif" text-anchor="end"><path class="domain" stroke="currentColor" d="M0.5,560.5V0.5"/><g class="tick" opacity="1" transform="translate(0,560.5)"><line stroke="currentColor" x2="-6"/><text fill="currentColor" x="-9" dy="0.32em">142</text></g><g class="tick" opacity="1" transform="translate(0,523.1666666666666)"><line stroke="currentColor" x2="-6"/><text fill="currentColor" x="-9" dy="0.32em">144</text></g><g class="tick" opacity="1" transform="translate(0,485.83333333333337)"><line stroke="currentColor" x2="-6"/><text fill="currentColor" x="-9" dy="0.32em">146</text></g><g class="tick" opacity="1" transform="translate(0,448.5)"><line stroke="currentColor" x2="-6"/><text fill="currentColor" x="-9" dy="0.32em">148</text></g><g class="tick" opacity="1" transform="translate(0,411.1666666666667)"><line stroke="currentColor" x2="-6"/><text fill="currentColor" x="-9" dy="0.32em">150</text></g><g class="tick" opacity="1" transform="translate(0,373.83333333333337)"><line stroke="currentColor" x2="-6"/><text fill="currentColor" x="-9" dy="0.32em">152</text></g><g class="tick" opacity="1" transform="translate(0,336.5)"><line stroke="currentColor" x2="-6"/><text fill="currentColor" x="-9" dy="0.32em">154</text></g><g class="tick" opacity="1" transform="translate(0,299.1666666666667)"><line stroke="currentColor" x2="-6"/><text fill="currentColor" x="-9" dy="0.32em">156</text></g><g class="tick" opacity="1" transform="translate(0,261.8333333333333)"><line stroke="currentColor" x2="-6"/><text fill="currentColor" x="-9" dy="0.32em">158</text></g><g class="tick" opacity="1" transform="translate(0,224.5)"><line stroke="currentColor" x2="-6"/><text fill="currentColor" x="-9" dy="0.32em">160</text></g><g class="tick" opacity="1" transform="translate(0,187.16666666666669)"><line stroke="currentColor" x2="-6"/><text fill="currentColor" x="-9" dy="0.32em">162</text></g><g class="tick" opacity="1" transform="translate(0,149.83333333333337)"><line stroke="currentColor" x2="-6"/><text fill="currentColor" x="-9" dy="0.32em">164</text></g><g class="tick" opacity="1" transform="translate(0,112.49999999999997)"><line stroke="currentColor" x2="-6"/><text fill="currentColor" x="-9" dy="0.32em">166</text></g><g class="tick" opacity="1" transform="translate(0,75.16666666666666)"><line stroke="currentColor" x2="-6"/><text fill="currentColor" x="-9" dy="0.32em">168</text></g><g class="tick" opacity="1" transform="translate(0,37.83333333333333)"><line stroke="currentColor" x2="-6"/><text fill="currentColor" x="-9" dy="0.32em">170</text></g><g class="tick" opacity="1" transform="translate(0,0.5)"><line stroke="currentColor" x2="-6"/><text fill="currentColor" x="-9" dy="0.32em">172</text></g><text x="4" text-anchor="start" dominant-baseline="hanging" style="font-family: Arial, sans-serif; font-size: 12px; fill: rgb(123, 123, 123); font-weight: bold;">收盤價</text></g></g><g id="viz"><g><path d="M0,224L1.3461538461538465,236.44444444444446C2.692307692307693,248.8888888888889,5.384615384615386,273.77777777777777,8.076923076923078,284.6666666666667C10.769230769230772,295.5555555555556,13.461538461538465,292.4444444444444,16.153846153846157,283.11111111111114C18.84615384615385,273.77777777777777,21.538461538461537,258.22222222222223,26.923076923076923,262.88888888888886C32.30769230769231,267.5555555555556,40.38461538461538,292.4444444444444,45.76923076923077,303.3333333333333C51.15384615384615,314.22222222222223,53.84615384615385,311.1111111111111,56.53846153846155,306.4444444444444C59.23076923076923,301.77777777777777,61.923076923076934,295.55555555555554,64.61538461538463,304.88888888888886C67.30769230769232,314.22222222222223,70,339.1111111111111,72.6923076923077,351.5555555555555C75.38461538461539,364,78.07692307692308,364,83.46153846153847,367.1111111111111C88.84615384615385,370.22222222222223,96.92307692307692,376.4444444444445,102.3076923076923,376.4444444444445C107.6923076923077,376.4444444444445,110.3846153846154,370.22222222222223,129.23076923076925,373.3333333333333C148.07692307692307,376.4444444444444,183.07692307692307,388.88888888888886,201.9230769230769,390.4444444444444C220.76923076923075,392,223.46153846153845,382.6666666666667,226.15384615384616,378C228.84615384615384,373.3333333333333,231.53846153846155,373.3333333333333,234.23076923076925,360.8888888888889C236.9230769230769,348.4444444444445,239.6153846153846,323.5555555555556,242.3076923076923,308C245,292.44444444444446,247.6923076923077,286.22222222222223,253.0769230769231,301.77777777777777C258.4615384615385,317.3333333333333,266.53846153846155,354.6666666666667,271.92307692307696,373.3333333333333C277.3076923076923,392,280.00000000000006,392,282.69230769230774,390.4444444444444C285.3846153846154,388.8888888888889,288.0769230769231,385.7777777777778,290.7692307692308,388.8888888888889C293.4615384615385,392,296.1538461538462,401.3333333333333,298.84615384615387,415.3333333333333C301.5384615384616,429.3333333333333,304.2307692307693,448,309.61538461538464,468.22222222222223C315.00000000000006,488.4444444444445,323.0769230769231,510.22222222222223,328.4615384615385,504C333.84615384615387,497.77777777777777,336.53846153846155,463.5555555555555,339.2307692307692,454.2222222222222C341.9230769230769,444.88888888888886,344.6153846153846,460.4444444444444,347.3076923076923,463.5555555555556C350,466.6666666666667,352.6923076923077,457.3333333333333,355.3846153846154,458.8888888888889C358.0769230769231,460.4444444444445,360.7692307692308,472.8888888888889,366.1538461538462,476C371.5384615384615,479.11111111111114,379.6153846153846,472.8888888888889,385,444.8888888888889C390.3846153846154,416.8888888888889,393.0769230769231,367.1111111111111,395.7692307692308,350C398.4615384615385,332.88888888888886,401.1538461538462,348.4444444444444,403.8461538461538,339.1111111111111C406.5384615384616,329.77777777777777,409.2307692307692,295.55555555555554,411.9230769230769,281.55555555555554C414.6153846153846,267.55555555555554,417.3076923076923,273.77777777777777,428.0769230769231,266C438.8461538461538,258.22222222222223,457.6923076923077,236.44444444444443,468.4615384615385,217.77777777777774C479.2307692307692,199.11111111111111,481.9230769230769,183.55555555555557,487.3076923076923,171.11111111111111C492.6923076923076,158.66666666666669,500.7692307692307,149.33333333333334,506.1538461538462,140C511.5384615384616,130.66666666666666,514.2307692307693,121.33333333333331,516.923076923077,132.2222222222222C519.6153846153846,143.1111111111111,522.3076923076924,174.2222222222222,525,178.8888888888889C527.6923076923077,183.55555555555557,530.3846153846154,161.7777777777778,533.0769230769231,149.33333333333334C535.7692307692308,136.88888888888889,538.4615384615385,133.77777777777774,543.8461538461538,115.11111111111109C549.2307692307693,96.44444444444441,557.3076923076924,62.22222222222223,562.6923076923077,43.55555555555557C568.0769230769232,24.888888888888903,570.7692307692308,21.777777777777786,573.4615384615385,32.666666666666664C576.1538461538462,43.55555555555554,578.8461538461538,68.44444444444443,581.5384615384615,104.22222222222221C584.2307692307692,139.99999999999997,586.923076923077,186.66666666666666,589.6153846153846,202.2222222222222C592.3076923076924,217.77777777777774,595,202.22222222222226,600.3846153846154,194.44444444444446C605.7692307692308,186.66666666666666,613.8461538461538,186.66666666666666,619.2307692307692,191.33333333333337C624.6153846153846,196,627.3076923076923,205.33333333333334,630,206.88888888888889C632.6923076923077,208.44444444444443,635.3846153846154,202.2222222222222,638.0769230769231,205.33333333333334C640.7692307692308,208.44444444444443,643.4615384615385,220.88888888888889,646.1538461538461,224C648.8461538461538,227.1111111111111,651.5384615384615,220.88888888888889,656.9230769230769,216.2222222222222C662.3076923076923,211.55555555555554,670.3846153846154,208.44444444444446,675.7692307692307,208.44444444444446C681.1538461538462,208.44444444444446,683.8461538461538,211.55555555555554,686.5384615384615,219.33333333333334C689.2307692307692,227.1111111111111,691.923076923077,239.55555555555554,693.2692307692308,245.77777777777774L694.6153846153846,251.99999999999997" stroke="#1f77b4" fill="none"/><text font-family="sans-serif" font-size="10" class="labels" x="573.4615384615385" y="18.666666666666664" dx="0" dy="-4" text-anchor="middle"/></g></g></g><text y="4" x="4" style="font-family: Arial, sans-serif; font-size: 12px; fill: black; font-weight: bold; dominant-baseline: hanging;"/></g><g id="grid"><rect x="0" y="0" width="805" height="600" fill="none" stroke="#ccc"/></g></g><g id="legend" transform="translate(805,20)"><g transform="translate(5,0)"/></g></svg>